#!OML:ASF H:\ManfredETheater\Project 1\Capture day 1\Session 1\subject.ASF
:FULLY-SPECIFIED
:DEGREES
128
root 6.40504 16.6668 -11.4027 -140.473 17.3671 -169.428
lowerback 27.3831 -1.8389 5.85645
upperback 7.84706 1.13499 4.44852
thorax -6.40641 1.11112 1.12746
lowerneck -5.67003 -1.20726 -0.273687
upperneck -24.5717 0.456716 0.17234
head -6.56857 1.29301 -0.0367238
rclavicle -1.19271e-014 1.799e-014
rhumerus -50.4183 1.10799 -79.7486
rradius 35.6702
rwrist 13.7055
rhand -18.0136 -3.7257
rfingers 7.12502
rthumb 8.25717 -33.5443
lclavicle -1.19271e-014 1.799e-014
lhumerus -49.0129 -1.82708 85.0574
lradius 51.882
lwrist 7.72225
lhand -20.1146 7.98249
lfingers 7.12502
lthumb 6.22919 37.8709
rfemur -34.9643 -11.9008 28.5814
rtibia 52.6946
rfoot 2.80141 -15.9466
rtoes -39.3258
lfemur -76.8607 2.94424 -21.5827
ltibia 90.8568
lfoot -15.144 -2.66099
ltoes -25.4061
129
root 6.57568 16.7914 -12.0055 -141.146 16.6644 -169.096
lowerback 26.8746 -1.78019 5.96815
upperback 7.80733 1.20203 4.55919
thorax -6.20243 1.14773 1.16436
lowerneck -5.45927 -1.21044 -0.302853
upperneck -23.7962 0.363221 0.303889
head -6.34879 1.17674 0.0253534
rclavicle -5.9039e-014 -6.69904e-014
rhumerus -50.5047 0.248806 -78.6316
rradius 35.154
rwrist 14.3463
rhand -17.8655 -3.25758
rfingers 7.12502
rthumb 8.40009 -33.0705
lclavicle -5.9039e-014 -6.69904e-014
lhumerus -49.5853 -1.66027 85.5204
lradius 52.7838
lwrist 8.95442
lhand -20.3826 7.79491
lfingers 7.12502
lthumb 5.97046 37.6908
rfemur -30.9019 -11.9791 28.0798
rtibia 49.433
rfoot 7.4199 -15.6457
rtoes -35.7461
lfemur -77.1753 2.52154 -21.6411
ltibia 86.3008
lfoot -15.8833 -3.39473
ltoes -24.3952
130
root 6.74394 16.9063 -12.6121 -141.748 15.9919 -168.707
lowerback 26.3284 -1.69775 6.12088
upperback 7.72562 1.30119 4.68339
thorax -6.02417 1.19601 1.18371
lowerneck -5.27174 -1.20525 -0.314108
upperneck -22.9715 0.273209 0.408097
head -6.11148 1.0622 0.0746606
rclavicle -3.67752e-014 -2.26615e-014
rhumerus -50.5188 -0.618128 -77.4598
rradius 34.5809
rwrist 14.6774
rhand -17.8029 -3.03402
rfingers 7.12502
rthumb 8.4606 -32.8445
lclavicle -3.67752e-014 -2.26615e-014
lhumerus -50.1389 -1.54376 86.0103
lradius 53.7324
lwrist 10.0272
lhand -20.7393 7.56392
lfingers 7.12502
lthumb 5.62602 37.4692
rfemur -26.9148 -11.8492 27.6287
rtibia 46.1415
rfoot 11.5808 -15.9246
rtoes -31.6396
lfemur -77.3019 2.1916 -21.6729
ltibia 81.5026
lfoot -16.4525 -4.19557
ltoes -23.1754
131
root 6.90911 17.01 -13.2209 -142.263 15.3715 -168.246
lowerback 25.7316 -1.58531 6.3167
upperback 7.60764 1.43889 4.81737
thorax -5.85783 1.25962 1.17899
lowerneck -5.12393 -1.19383 -0.320676
upperneck -22.1169 0.190627 0.497294
head -5.86043 0.954015 0.117016
rclavicle -5.40694e-014 -6.43068e-014
rhumerus -50.4631 -1.50915 -76.2333
rradius 33.9846
rwrist 14.6497
rhand -17.7628 -3.05445
rfingers 7.12502
rthumb 8.49923 -32.8634
lclavicle -5.40694e-014 -6.43068e-014
lhumerus -50.6685 -1.44941 86.502
lradius 54.721
lwrist 10.7915
lhand -21.158 7.26579
lfingers 7.12502
lthumb 5.22183 37.1815
rfemur -23.0445 -11.5068 27.257
rtibia 42.9305
rfoot 14.8821 -16.6858
rtoes -27.6724
lfemur -77.2795 1.95189 -21.6571
ltibia 76.5039
lfoot -16.8332 -4.98543
ltoes -21.9815
132
root 7.07079 17.1022 -13.8308 -142.687 14.8199 -167.681
lowerback 25.0887 -1.44029 6.56823
upperback 7.46532 1.62318 4.95965
thorax -5.69077 1.34399 1.1401
lowerneck -5.03031 -1.176 -0.327654
upperneck -21.2486 0.120716 0.580037
head -5.59856 0.856375 0.155678
rclavicle -1.05356e-014 -2.49475e-014
rhumerus -50.3437 -2.44566 -74.9533
rradius 33.3921
rwrist 14.3484
rhand -17.7476 -3.28999
rfingers 7.12502
rthumb 8.51396 -33.0984
lclavicle -1.05356e-014 -2.49475e-014
lhumerus -51.1649 -1.35001 86.9672
lradius 55.7406
lwrist 11.1737
lhand -21.6099 6.87066
lfingers 7.12502
lthumb 4.78544 36.7966
rfemur -19.3199 -10.9571 27.0009
rtibia 39.9087
rfoot 17.1488 -17.8272
rtoes -24.2797
lfemur -77.1213 1.80231 -21.5416
ltibia 71.3426
lfoot -17.0123 -5.70164
ltoes -20.8116
133
root 7.22837 17.1828 -14.4411 -143.045 14.3671 -167.007
lowerback 24.4183 -1.26259 6.86127
upperback 7.31159 1.8533 5.10771
thorax -5.51702 1.45027 1.07387
lowerneck -4.9743 -1.14641 -0.357434
upperneck -20.384 0.0725666 0.665491
head -5.33398 0.775031 0.197004
rclavicle -1.78906e-014 -6.31141e-014
rhumerus -50.1646 -3.41364 -73.6219
rradius 32.8141
rwrist 13.8852
rhand -17.7744 -3.64192
rfingers 7.12502
rthumb 8.48802 -33.4513
lclavicle -1.78906e-014 -6.31141e-014
lhumerus -51.6375 -1.20418 87.3915
lradius 56.8003
lwrist 11.1721
lhand -22.0648 6.37096
lfingers 7.12502
lthumb 4.34615 36.3064
rfemur -15.7464 -10.2096 26.8474
rtibia 37.1646
rfoot 18.3929 -19.2312
rtoes -21.6308
lfemur -76.8123 1.72932 -21.2915
ltibia 66.0609
lfoot -16.9897 -6.2548
ltoes -19.6901
134
root 7.38134 17.2519 -15.0508 -143.365 14.0355 -166.22
lowerback 23.7491 -1.05404 7.18563
upperback 7.16117 2.12837 5.25489
thorax -5.33387 1.57965 0.980298
lowerneck -4.95508 -1.10248 -0.400714
upperneck -19.5302 0.0489954 0.747137
head -5.06901 0.711142 0.237406
rclavicle 3.06128e-014 4.84041e-014
rhumerus -49.9245 -4.39833 -72.2648
rradius 32.2847
rwrist 13.3596
rhand -17.8038 -4.0858
rfingers 7.12502
rthumb 8.45972 -33.8964
lclavicle 3.06128e-014 4.84041e-014
lhumerus -52.083 -0.970341 87.7487
lradius 57.9139
lwrist 10.8546
lhand -22.4735 5.80489
lfingers 7.12502
lthumb 3.95153 35.748
rfemur -12.3709 -9.29242 26.7795
rtibia 34.8504
rfoot 18.8648 -20.7394
rtoes -19.6582
lfemur -76.3504 1.71894 -20.8722
ltibia 60.7525
lfoot -16.799 -6.53723
ltoes -18.634
135
root 7.5293 17.3085 -15.6609 -143.681 13.8132 -165.32
lowerback 23.0937 -0.845825 7.55253
upperback 7.02705 2.41515 5.41233
thorax -5.13386 1.71807 0.875518
lowerneck -4.94751 -1.02623 -0.492298
upperneck -18.6897 0.0727892 0.829097
head -4.80836 0.676575 0.283685
rclavicle 5.20816e-014 5.14852e-014
rhumerus -49.6111 -5.2893 -70.9253
rradius 31.8169
rwrist 12.8654
rhand -17.8507 -4.55892
rfingers 7.12502
rthumb 8.41447 -34.3713
lclavicle 5.20816e-014 5.14852e-014
lhumerus -52.5253 -0.566905 88.0308
lradius 59.1072
lwrist 10.3471
lhand -22.8054 5.21717
lfingers 7.12502
lthumb 3.63105 35.166
rfemur -9.15527 -8.26736 26.7842
rtibia 32.9441
rfoot 19.0097 -22.2333
rtoes -18.1849
lfemur -75.7076 1.73513 -20.2263
ltibia 55.4734
lfoot -16.4416 -6.46552
ltoes -17.6353
136
root 7.67426 17.3323 -16.2668 -144.008 13.6886 -164.32
lowerback 22.4517 -0.651538 7.96949
upperback 6.91056 2.69642 5.57639
thorax -4.91514 1.85758 0.756423
lowerneck -5.13424 -0.91375 -0.602201
upperneck -17.3339 0.139735 0.871269
head -4.87028 0.670259 0.348097
rclavicle -9.54166e-015 -1.50082e-014
rhumerus -49.2264 -6.03238 -69.6591
rradius 31.4243
rwrist 12.4996
rhand -17.9201 -5.04535
rfingers 7.12502
rthumb 8.34744 -34.8604
lclavicle -9.54166e-015 -1.50082e-014
lhumerus -52.9841 0.00789269 88.2362
lradius 60.3976
lwrist 9.81453
lhand -23.0635 4.62625
lfingers 7.12502
lthumb 3.38173 34.5792
rfemur -6.12084 -7.17419 26.8317
rtibia 31.5319
rfoot 19.1536 -23.6149
rtoes -16.6261
lfemur -74.9901 1.73913 -19.335
ltibia 50.3832
lfoot -15.911 -5.97179
ltoes -16.6299
137
root 7.81243 17.3615 -16.8789 -144.362 13.6681 -163.244
lowerback 21.8358 -0.473985 8.42546
upperback 6.80791 2.96477 5.73677
thorax -4.68843 1.99382 0.619766
lowerneck -5.10298 -0.758674 -0.710231
upperneck -16.5267 0.264283 0.919338
head -4.5724 0.68908 0.384257
rclavicle -7.55382e-015 -6.94752e-014
rhumerus -48.7731 -6.58303 -68.5219
rradius 31.1242
rwrist 12.2672
rhand -17.9988 -5.51719
rfingers 7.12502
rthumb 8.2715 -35.3353
lclavicle -7.55382e-015 -6.94752e-014
lhumerus -53.4705 0.740951 88.3613
lradius 61.7949
lwrist 9.3847
lhand -23.2281 4.09411
lfingers 7.12502
lthumb 3.22285 34.0495
rfemur -3.29439 -6.0426 26.8833
rtibia 30.5824
rfoot 19.5439 -24.6314
rtoes -15.2774
lfemur -74.015 1.73183 -18.2056
ltibia 45.4936
lfoot -15.3315 -5.03347
ltoes -15.5154
138
root 7.94658 17.3749 -17.4917 -144.717 13.7641 -162.128
lowerback 21.2239 -0.307258 8.87636
upperback 6.69925 3.21085 5.89042
thorax -4.46636 2.11915 0.489098
lowerneck -5.07216 -0.556599 -0.799127
upperneck -15.6705 0.444355 0.939035
head -4.26221 0.734062 0.406159
rclavicle -2.18663e-015 1.35174e-014
rhumerus -48.2533 -6.8837 -67.555
rradius 30.9124
rwrist 12.1844
rhand -18.1208 -5.95485
rfingers 7.12502
rthumb 8.15379 -35.7775
lclavicle -2.18663e-015 1.35174e-014
lhumerus -54.0015 1.62287 88.4153
lradius 63.2943
lwrist 9.15149
lhand -23.2933 3.68047
lfingers 7.12502
lthumb 3.15985 33.6368
rfemur -0.760973 -4.88731 26.8915
rtibia 30.1938
rfoot 20.1803 -25.0734
rtoes -14.3086
lfemur -72.9594 1.70805 -16.8951
ltibia 41.0045
lfoot -14.6921 -3.70951
ltoes -14.0905
139
root 8.07697 17.3723 -18.1058 -145.043 13.9472 -161.003
lowerback 20.5748 -0.158881 9.33448
upperback 6.57197 3.41912 6.0321
thorax -4.24136 2.22463 0.356124
lowerneck -5.05615 -0.309036 -0.852575
upperneck -14.7496 0.678327 0.933314
head -3.93191 0.803707 0.412733
rclavicle -5.1684e-015 -7.77248e-014
rhumerus -47.6738 -6.91799 -66.7877
rradius 30.8088
rwrist 12.2148
rhand -18.2477 -6.37282
rfingers 7.12502
rthumb 8.03124 -36.2002
lclavicle -5.1684e-015 -7.77248e-014
lhumerus -54.5626 2.59797 88.4099
lradius 64.8636
lwrist 9.15968
lhand -23.2925 3.4218
lfingers 7.12502
lthumb 3.1606 33.3781
rfemur 1.45207 -3.77333 26.8351
rtibia 30.3036
rfoot 21.1142 -24.7509
rtoes -13.4672
lfemur -71.8567 1.66885 -15.4816
ltibia 36.9586
lfoot -13.9825 -2.14966
ltoes -12.3334
